#Comment line ignore any data following # character 
#Hierarchical Translation and Rotation (.htr) file 
[Header]	
#Header keywords are followed by a single value 
FileType HTR		#Single word string
DataType HTRS		#Translation followed by rotation and scale data
FileVersion 1		#integer
NumSegments 84		#integer
NumFrames 2		#integer
DataFrameRate 30		#integer, data frame rate in this file
EulerRotationOrder ZYX
CalibrationUnits mm
RotationUnits Degrees
GlobalAxisofGravity Y
BoneLengthAxis Y
ScaleFactor 1.00
[SegmentNames&Hierarchy]
#CHILD	PARENT
MASTER GLOBAL
root MASTER
chest root
L_mid_tent01 root
R_mid_tent01 root
spine01 root
Bip01_Neck chest
L_humerus chest
R_humerus chest
weapon_bone chest
Bip01_Head Bip01_Neck
eye_left_bone Bip01_Head
eye_right_bone Bip01_Head
L_forearm L_humerus
L_front_hand L_forearm
L_weapon_bone L_forearm
L_front_hand01_01 L_front_hand
L_front_hand02_01 L_front_hand
L_front_hand03_01 L_front_hand
L_front_hand01_02 L_front_hand01_01
L_front_hand02_02 L_front_hand02_01
L_front_hand03_02 L_front_hand03_01
R_forearm R_humerus
R_front_hand R_forearm
R_weapon_bone R_forearm
R_front_hand01_01 R_front_hand
R_front_hand02_01 R_front_hand
R_front_hand03_01 R_front_hand
R_front_hand01_02 R_front_hand01_01
R_front_hand02_02 R_front_hand02_01
R_front_hand03_02 R_front_hand03_01
null_rope01_connect L_mid_tent01
Rope1_Seg01 null_rope01_connect
Rope1_Seg02 Rope1_Seg01
Rope1_Seg03 Rope1_Seg02
Rope1_Seg04 Rope1_Seg03
Rope1_Seg05 Rope1_Seg04
Rope1_Seg06 Rope1_Seg05
Rope1_Seg07 Rope1_Seg06
Rope1_Seg09 Rope1_Seg07
L_mid_hand01 Rope1_Seg09
L_mid_hand02 Rope1_Seg09
L_mid_hand03 Rope1_Seg09
null_rope02_connect R_mid_tent01
Rope2_Seg01 null_rope02_connect
Rope2_Seg02 Rope2_Seg01
Rope2_Seg03 Rope2_Seg02
Rope2_Seg04 Rope2_Seg03
Rope2_Seg05 Rope2_Seg04
Rope2_Seg06 Rope2_Seg05
Rope2_Seg07 Rope2_Seg06
Rope2_Seg09 Rope2_Seg07
R_mid_hand01 Rope2_Seg09
R_mid_hand02 Rope2_Seg09
R_mid_hand03 Rope2_Seg09
spine02 spine01
spine03 spine02
pelvis spine03
null_rope03_connect pelvis
null_rope04_connect pelvis
Rope3_Seg01 null_rope03_connect
Rope3_Seg02 Rope3_Seg01
Rope3_Seg03 Rope3_Seg02
Rope3_Seg04 Rope3_Seg03
Rope3_Seg05 Rope3_Seg04
Rope3_Seg06 Rope3_Seg05
Rope3_Seg07 Rope3_Seg06
Rope3_Seg08 Rope3_Seg07
Rope3_Seg09 Rope3_Seg08
R_rear_hand01 Rope3_Seg09
R_rear_hand02 Rope3_Seg09
R_rear_hand03 Rope3_Seg09
Rope4_Seg01 null_rope04_connect
Rope4_Seg02 Rope4_Seg01
Rope4_Seg03 Rope4_Seg02
Rope4_Seg04 Rope4_Seg03
Rope4_Seg05 Rope4_Seg04
Rope4_Seg06 Rope4_Seg05
Rope4_Seg07 Rope4_Seg06
Rope4_Seg08 Rope4_Seg07
Rope4_Seg09 Rope4_Seg08
L_rear_hand01 Rope4_Seg09
L_rear_hand02 Rope4_Seg09
L_rear_hand03 Rope4_Seg09
[BasePosition]
#SegmentName Tx, Ty, Tz, Rx, Ry, Rz, BoneLength
MASTER 0.000000 0.000000 0.000000 -90.000000 0.000000 0.000000 10.000000 
root 0.000000 0.000000 0.000000 0.000000 0.000000 0.000000 10.000000 
chest 0.000000 0.000000 0.000000 0.000000 0.000000 0.000000 10.000000 
L_mid_tent01 0.000000 0.000000 0.000000 0.000000 0.000000 0.000000 10.000000 
R_mid_tent01 0.000000 0.000000 0.000000 0.000000 0.000000 0.000000 10.000000 
spine01 0.000000 0.000000 0.000000 0.000000 0.000000 0.000000 10.000000 
Bip01_Neck 0.000000 0.000000 0.000000 0.000000 0.000000 0.000000 10.000000 
L_humerus 0.000000 0.000000 0.000000 0.000000 0.000000 0.000000 10.000000 
R_humerus 0.000000 0.000000 0.000000 0.000000 0.000000 0.000000 10.000000 
weapon_bone 0.000000 0.000000 0.000000 0.000000 0.000000 0.000000 10.000000 
Bip01_Head 0.000000 0.000000 0.000000 0.000000 0.000000 0.000000 10.000000 
eye_left_bone 0.000000 0.000000 0.000000 0.000000 0.000000 0.000000 10.000000 
eye_right_bone 0.000000 0.000000 0.000000 0.000000 0.000000 0.000000 10.000000 
L_forearm 0.000000 0.000000 0.000000 0.000000 0.000000 0.000000 10.000000 
L_front_hand 0.000000 0.000000 0.000000 0.000000 0.000000 0.000000 10.000000 
L_weapon_bone 0.000000 0.000000 0.000000 0.000000 0.000000 0.000000 10.000000 
L_front_hand01_01 0.000000 0.000000 0.000000 0.000000 0.000000 0.000000 10.000000 
L_front_hand02_01 0.000000 0.000000 0.000000 0.000000 0.000000 0.000000 10.000000 
L_front_hand03_01 0.000000 0.000000 0.000000 0.000000 0.000000 0.000000 10.000000 
L_front_hand01_02 0.000000 0.000000 0.000000 0.000000 0.000000 0.000000 10.000000 
L_front_hand02_02 0.000000 0.000000 0.000000 0.000000 0.000000 0.000000 10.000000 
L_front_hand03_02 0.000000 0.000000 0.000000 0.000000 0.000000 0.000000 10.000000 
R_forearm 0.000000 0.000000 0.000000 0.000000 0.000000 0.000000 10.000000 
R_front_hand 0.000000 0.000000 0.000000 0.000000 0.000000 0.000000 10.000000 
R_weapon_bone 0.000000 0.000000 0.000000 0.000000 0.000000 0.000000 10.000000 
R_front_hand01_01 0.000000 0.000000 0.000000 0.000000 0.000000 0.000000 10.000000 
R_front_hand02_01 0.000000 0.000000 0.000000 0.000000 0.000000 0.000000 10.000000 
R_front_hand03_01 0.000000 0.000000 0.000000 0.000000 0.000000 0.000000 10.000000 
R_front_hand01_02 0.000000 0.000000 0.000000 0.000000 0.000000 0.000000 10.000000 
R_front_hand02_02 0.000000 0.000000 0.000000 0.000000 0.000000 0.000000 10.000000 
R_front_hand03_02 0.000000 0.000000 0.000000 0.000000 0.000000 0.000000 10.000000 
null_rope01_connect 0.000000 0.000000 0.000000 0.000000 0.000000 0.000000 10.000000 
Rope1_Seg01 0.000000 0.000000 0.000000 0.000000 0.000000 0.000000 10.000000 
Rope1_Seg02 0.000000 0.000000 0.000000 0.000000 0.000000 0.000000 10.000000 
Rope1_Seg03 0.000000 0.000000 0.000000 0.000000 0.000000 0.000000 10.000000 
Rope1_Seg04 0.000000 0.000000 0.000000 0.000000 0.000000 0.000000 10.000000 
Rope1_Seg05 0.000000 0.000000 0.000000 0.000000 0.000000 0.000000 10.000000 
Rope1_Seg06 0.000000 0.000000 0.000000 0.000000 0.000000 0.000000 10.000000 
Rope1_Seg07 0.000000 0.000000 0.000000 0.000000 0.000000 0.000000 10.000000 
Rope1_Seg09 0.000000 0.000000 0.000000 0.000000 0.000000 0.000000 10.000000 
L_mid_hand01 0.000000 0.000000 0.000000 0.000000 0.000000 0.000000 10.000000 
L_mid_hand02 0.000000 0.000000 0.000000 0.000000 0.000000 0.000000 10.000000 
L_mid_hand03 0.000000 0.000000 0.000000 0.000000 0.000000 0.000000 10.000000 
null_rope02_connect 0.000000 0.000000 0.000000 0.000000 0.000000 0.000000 10.000000 
Rope2_Seg01 0.000000 0.000000 0.000000 0.000000 0.000000 0.000000 10.000000 
Rope2_Seg02 0.000000 0.000000 0.000000 0.000000 0.000000 0.000000 10.000000 
Rope2_Seg03 0.000000 0.000000 0.000000 0.000000 0.000000 0.000000 10.000000 
Rope2_Seg04 0.000000 0.000000 0.000000 0.000000 0.000000 0.000000 10.000000 
Rope2_Seg05 0.000000 0.000000 0.000000 0.000000 0.000000 0.000000 10.000000 
Rope2_Seg06 0.000000 0.000000 0.000000 0.000000 0.000000 0.000000 10.000000 
Rope2_Seg07 0.000000 0.000000 0.000000 0.000000 0.000000 0.000000 10.000000 
Rope2_Seg09 0.000000 0.000000 0.000000 0.000000 0.000000 0.000000 10.000000 
R_mid_hand01 0.000000 0.000000 0.000000 0.000000 0.000000 0.000000 10.000000 
R_mid_hand02 0.000000 0.000000 0.000000 0.000000 0.000000 0.000000 10.000000 
R_mid_hand03 0.000000 0.000000 0.000000 0.000000 0.000000 0.000000 10.000000 
spine02 0.000000 0.000000 0.000000 0.000000 0.000000 0.000000 10.000000 
spine03 0.000000 0.000000 0.000000 0.000000 0.000000 0.000000 10.000000 
pelvis 0.000000 0.000000 0.000000 0.000000 0.000000 0.000000 10.000000 
null_rope03_connect 0.000000 0.000000 0.000000 0.000000 0.000000 0.000000 10.000000 
null_rope04_connect 0.000000 0.000000 0.000000 0.000000 0.000000 0.000000 10.000000 
Rope3_Seg01 0.000000 0.000000 0.000000 0.000000 0.000000 0.000000 10.000000 
Rope3_Seg02 0.000000 0.000000 0.000000 0.000000 0.000000 0.000000 10.000000 
Rope3_Seg03 0.000000 0.000000 0.000000 0.000000 0.000000 0.000000 10.000000 
Rope3_Seg04 0.000000 0.000000 0.000000 0.000000 0.000000 0.000000 10.000000 
Rope3_Seg05 0.000000 0.000000 0.000000 0.000000 0.000000 0.000000 10.000000 
Rope3_Seg06 0.000000 0.000000 0.000000 0.000000 0.000000 0.000000 10.000000 
Rope3_Seg07 0.000000 0.000000 0.000000 0.000000 0.000000 0.000000 10.000000 
Rope3_Seg08 0.000000 0.000000 0.000000 0.000000 0.000000 0.000000 10.000000 
Rope3_Seg09 0.000000 0.000000 0.000000 0.000000 0.000000 0.000000 10.000000 
R_rear_hand01 0.000000 0.000000 0.000000 0.000000 0.000000 0.000000 10.000000 
R_rear_hand02 0.000000 0.000000 0.000000 0.000000 0.000000 0.000000 10.000000 
R_rear_hand03 0.000000 0.000000 0.000000 0.000000 0.000000 0.000000 10.000000 
Rope4_Seg01 0.000000 0.000000 0.000000 0.000000 0.000000 0.000000 10.000000 
Rope4_Seg02 0.000000 0.000000 0.000000 0.000000 0.000000 0.000000 10.000000 
Rope4_Seg03 0.000000 0.000000 0.000000 0.000000 0.000000 0.000000 10.000000 
Rope4_Seg04 0.000000 0.000000 0.000000 0.000000 0.000000 0.000000 10.000000 
Rope4_Seg05 0.000000 0.000000 0.000000 0.000000 0.000000 0.000000 10.000000 
Rope4_Seg06 0.000000 0.000000 0.000000 0.000000 0.000000 0.000000 10.000000 
Rope4_Seg07 0.000000 0.000000 0.000000 0.000000 0.000000 0.000000 10.000000 
Rope4_Seg08 0.000000 0.000000 0.000000 0.000000 0.000000 0.000000 10.000000 
Rope4_Seg09 0.000000 0.000000 0.000000 0.000000 0.000000 0.000000 10.000000 
L_rear_hand01 0.000000 0.000000 0.000000 0.000000 0.000000 0.000000 10.000000 
L_rear_hand02 0.000000 0.000000 0.000000 0.000000 0.000000 0.000000 10.000000 
L_rear_hand03 0.000000 0.000000 0.000000 0.000000 0.000000 0.000000 10.000000 
#Beginning of Data. Separated by tabs
#Fr	Tx	Ty	Tz	Rx	Ry	Rz	SF
[MASTER]
1 0.000005 62.822109 0.000000 0.001660 0.001660 0.001660 62.822113
2 0.000005 62.822109 0.000000 0.001660 0.001660 0.001660 62.822113
[root]
1 -16.502295 -62.822117 1500.000000 -91.629700 -27.676081 -90.148109 1501.405640
2 -16.502295 -62.822117 1500.000000 -91.119225 -27.618599 -90.254402 1501.405640
[chest]
1 -84.512650 -34.090519 0.000000 -5.203234 1.503577 -178.039886 91.129311
2 -84.512650 -34.090519 0.000000 -4.779525 1.015782 -178.514420 91.129311
[L_mid_tent01]
1 27.299500 22.177580 -249.918015 3.862628 36.229202 81.347610 252.380905
2 27.330627 22.159729 -250.118439 4.977407 38.158524 83.364914 252.581177
[R_mid_tent01]
1 23.228794 24.509907 226.238495 160.432037 -47.061241 87.899765 228.744751
2 23.228794 24.509907 226.238495 159.231018 -46.234287 88.378349 228.744751
[spine01]
1 -0.361383 -0.195265 0.000000 0.840989 0.446373 15.483044 0.410763
2 -0.361383 -0.195265 0.000000 0.825624 0.449594 15.313303 0.410763
[Bip01_Neck]
1 165.484543 71.581718 0.000119 175.896118 1.177290 24.871183 180.302734
2 165.484543 71.581718 0.000119 175.896118 1.177290 24.871183 180.302734
[L_humerus]
1 -13.983130 -135.272980 -120.471481 170.940796 81.564224 -99.189163 181.680161
2 -13.983130 -135.272980 -120.471481 -177.912827 81.565941 -89.807785 181.680161
[R_humerus]
1 -13.983309 -135.273102 125.287651 -159.666046 -68.957870 -101.166077 184.909012
2 -13.983309 -135.273102 125.287651 -163.404144 -69.116104 -99.113792 184.909012
[weapon_bone]
1 235.964890 -300.705902 0.000000 0.000000 -89.951546 -128.212341 382.234833
2 235.964890 -300.705902 0.000000 0.000000 -89.951546 -128.212341 382.234833
[Bip01_Head]
1 261.355865 108.959351 -2.864227 2.248029 5.843377 -62.458344 283.173523
2 261.355865 108.959358 -2.864227 2.508176 5.844767 -62.454144 283.173523
[eye_left_bone]
1 -24.626970 125.451866 -64.772606 0.000000 -90.000000 -99.840431 143.318359
2 -24.626970 125.451866 -64.772606 0.000000 -90.000000 -99.840431 143.318359
[eye_right_bone]
1 -24.626970 125.451866 64.327362 0.000000 -89.960434 80.159386 143.117676
2 -24.626970 125.451866 64.327362 0.000000 -89.960434 80.159386 143.117676
[L_forearm]
1 322.776093 0.000000 -0.000119 0.000692 0.002243 -55.720154 322.776093
2 322.776093 0.000000 -0.000119 0.000667 0.002250 -56.982529 322.776093
[L_front_hand]
1 241.149185 -0.042021 -3.300071 -178.667953 -1.835447 -27.422350 241.171753
2 241.149185 -0.042021 -3.300071 -178.748169 -1.893415 -24.882595 241.171753
[L_weapon_bone]
1 156.183838 0.000000 0.000000 0.001660 0.001660 0.001660 156.183838
2 156.183838 0.000000 0.000000 0.001719 0.001599 4.142099 156.183838
[L_front_hand01_01]
1 86.095154 20.947098 -0.655860 -0.366594 -0.477154 75.385574 88.609184
2 86.095154 20.947098 -0.655860 0.405585 -0.442306 -4.620490 88.609184
[L_front_hand02_01]
1 86.935165 -11.437475 24.513514 154.403519 -59.888931 -61.371990 91.046425
2 86.935165 -11.437475 24.513514 116.959450 3.630817 1.495453 91.046425
[L_front_hand03_01]
1 86.637497 -14.123976 -20.424902 -153.913849 58.118122 -62.702866 90.126129
2 86.637497 -14.123976 -20.424902 -118.420097 -4.656303 -0.152527 90.126129
[L_front_hand01_02]
1 71.020905 -0.000179 0.000030 0.000334 -0.002323 -106.379684 71.020905
2 71.020905 -0.000179 0.000030 0.001534 0.001777 -8.378850 71.020905
[L_front_hand02_02]
1 71.020927 -0.000119 0.000060 0.000334 -0.002323 -106.379684 71.020927
2 71.020927 -0.000119 0.000060 0.001534 0.001777 -8.378850 71.020927
[L_front_hand03_02]
1 71.020905 -0.000060 0.000060 0.000334 -0.002323 -106.379684 71.020905
2 71.020905 -0.000060 0.000060 0.001534 0.001777 -8.378850 71.020905
[R_forearm]
1 322.776428 -0.000060 0.000030 0.199694 -0.075621 -69.903069 322.776428
2 322.776428 -0.000060 0.000030 0.200255 -0.074122 -70.762161 322.776428
[R_front_hand]
1 238.847015 -0.006795 2.210259 -1.531694 0.790216 -51.443054 238.857239
2 238.847015 -0.006795 2.210259 -1.362728 1.057392 -40.909428 238.857239
[R_weapon_bone]
1 155.664093 0.002503 -0.000030 0.003487 0.001180 -90.988930 155.664078
2 155.664093 0.002503 -0.000030 0.003238 0.001750 -110.392578 155.664078
[R_front_hand01_01]
1 87.624611 14.231146 22.918642 -154.633499 -59.950619 61.746044 91.683487
2 87.624611 14.231146 22.918642 -116.960213 3.496675 -1.324139 91.683487
[R_front_hand02_01]
1 89.356956 14.367283 -19.491137 154.602661 58.302849 63.744389 92.579636
2 89.356956 14.367283 -19.491137 118.419647 -4.257089 0.609827 92.579636
[R_front_hand03_01]
1 87.286232 -22.307278 -0.143439 0.162155 -0.423168 -75.767921 90.091743
2 87.286232 -22.307278 -0.143439 -0.387970 -0.231462 4.232001 90.091743
[R_front_hand01_02]
1 71.020905 0.000060 0.000119 0.002323 -0.000334 106.381714 71.020905
2 71.020905 0.000060 0.000119 0.001777 0.001534 8.377220 71.020905
[R_front_hand02_02]
1 71.020844 -0.000030 -0.000119 0.002323 -0.000334 106.381714 71.020836
2 71.020844 -0.000030 -0.000119 0.001777 0.001534 8.377220 71.020836
[R_front_hand03_02]
1 71.020905 0.000000 0.000030 0.002323 -0.000334 106.381714 71.020905
2 71.020905 0.000000 0.000030 0.001777 0.001534 8.377220 71.020905
[null_rope01_connect]
1 328.732483 0.000000 -0.000238 -137.564545 -51.925488 175.258728 328.732483
2 328.732483 0.000000 -0.000238 -137.837067 -50.312801 173.848404 328.732483
[Rope1_Seg01]
1 0.000000 0.000000 0.000000 108.264275 46.149986 131.213257 0.000000
2 0.000000 0.000000 0.000000 112.594063 39.641342 138.968384 0.000000
[Rope1_Seg02]
1 139.999863 -0.000179 0.000000 -0.240507 -7.904460 4.436496 139.999863
2 139.999863 -0.000179 0.000000 -0.242130 -11.833944 4.318767 139.999863
[Rope1_Seg03]
1 139.999924 0.000060 -0.000060 -1.480523 -12.125539 5.652235 139.999924
2 139.999924 0.000060 -0.000060 -1.504514 -12.874431 2.142607 139.999924
[Rope1_Seg04]
1 139.999924 -0.000060 -0.000119 -5.730266 -18.955944 9.300071 139.999924
2 139.999924 -0.000060 -0.000119 -5.333325 -18.996456 11.340069 139.999924
[Rope1_Seg05]
1 139.999832 0.000119 -0.000060 1.009412 -10.198746 14.885527 139.999832
2 139.999832 0.000119 -0.000060 -2.942580 -10.653913 8.850249 139.999832
[Rope1_Seg06]
1 139.999954 0.000119 -0.000060 1.855141 -3.602455 5.973711 139.999954
2 139.999954 0.000119 -0.000060 -1.982624 -4.439080 2.781536 139.999954
[Rope1_Seg07]
1 139.999985 0.000060 0.000000 0.790217 -2.147129 3.073952 139.999985
2 139.999985 0.000060 0.000000 -1.398770 -2.626354 1.522924 139.999985
[Rope1_Seg09]
1 121.602913 0.000119 -0.000089 -89.793175 -1.359789 0.847147 121.602913
2 121.602913 0.000119 -0.000089 -89.793175 -1.359789 0.847147 121.602913
[L_mid_hand01]
1 103.859421 1.038730 8.195221 111.431305 -47.263851 -16.612017 104.187431
2 103.859421 1.038730 8.195221 111.431297 -47.263840 -16.612019 104.187431
[L_mid_hand02]
1 105.572853 -4.139662 -10.864139 -150.709808 35.166882 -45.161087 106.211075
2 105.572853 -4.139662 -10.864139 -150.709808 35.166874 -45.161087 106.211075
[L_mid_hand03]
1 104.641464 17.579376 -3.913581 -12.649596 13.974999 50.985855 106.179977
2 104.641464 17.579376 -3.913581 -12.649595 13.974999 50.985855 106.179977
[null_rope02_connect]
1 328.732849 0.000179 -0.000119 -123.736763 41.490059 18.218470 328.732849
2 328.732849 0.000179 -0.000119 -122.704285 41.487583 19.303301 328.732849
[Rope2_Seg01]
1 -0.000076 0.000134 0.000153 -50.775883 45.868767 49.832600 0.000217
2 -0.000075 0.000134 0.000148 -58.812111 49.018578 39.597645 0.000214
[Rope2_Seg02]
1 139.999741 -0.000060 -0.000119 -0.071239 -5.826622 2.308165 139.999756
2 139.999741 -0.000060 -0.000119 0.415434 -7.427460 1.337663 139.999756
[Rope2_Seg03]
1 140.000107 0.000030 0.000000 -0.182973 -6.042029 3.216055 140.000107
2 140.000107 0.000030 0.000000 0.180101 -7.742046 1.392343 140.000107
[Rope2_Seg04]
1 139.999802 0.000000 -0.000060 -0.928881 -15.009486 5.883286 139.999802
2 139.999802 0.000000 -0.000060 -1.019840 -18.734158 3.819793 139.999802
[Rope2_Seg05]
1 139.999985 -0.000060 0.000119 -4.549895 -22.743425 3.704308 139.999985
2 139.999985 -0.000060 0.000119 -3.231543 -20.789898 4.428329 139.999985
[Rope2_Seg06]
1 139.999893 -0.000030 -0.000119 -2.262731 -7.007855 0.725032 139.999893
2 139.999893 -0.000030 -0.000119 -1.575585 -6.645393 1.054323 139.999893
[Rope2_Seg07]
1 139.999893 0.000060 -0.000060 -1.451895 -3.606101 0.274999 139.999893
2 139.999893 0.000060 -0.000060 -1.061571 -3.540881 0.460026 139.999893
[Rope2_Seg09]
1 121.338966 0.000089 -0.000060 33.793236 -1.359788 -0.847141 121.338966
2 121.338966 0.000089 -0.000060 33.793236 -1.359788 -0.847141 121.338966
[R_mid_hand01]
1 104.680779 11.144459 -10.335981 -34.269650 35.095989 42.885235 105.778534
2 104.680779 11.144459 -10.335981 -34.269653 35.095997 42.885235 105.778534
[R_mid_hand02]
1 104.070427 2.443552 8.231699 68.449066 -47.537163 16.779839 104.424065
2 104.070427 2.443552 8.231699 68.449051 -47.537151 16.779839 104.424065
[R_mid_hand03]
1 106.028137 -11.221827 -5.996406 -171.106766 13.128626 -52.726494 106.788818
2 106.028137 -11.221827 -5.996406 -171.106766 13.128626 -52.726494 106.788818
[spine02]
1 129.756927 0.001550 0.000119 -0.245322 -4.052060 -4.355547 129.756927
2 129.756927 0.001550 0.000119 -0.247691 -4.101743 -4.375238 129.756927
[spine03]
1 78.613739 0.087433 -4.898796 0.369659 4.260734 -4.885720 78.766266
2 78.621498 0.086060 -4.823093 0.438040 4.191284 -4.313746 78.769348
[pelvis]
1 169.435242 0.051022 0.000000 -0.010007 -0.191417 -1.897554 169.435257
2 169.435242 0.051022 0.000000 -16.692924 -1.096421 -2.917124 169.435257
[null_rope03_connect]
1 -1.257226 -2.466202 137.391083 -95.556999 -88.990318 -151.086731 137.418976
2 -1.257226 -2.466202 137.391083 -156.311661 -73.293808 -89.742935 137.418976
[null_rope04_connect]
1 -1.259640 -2.480268 -137.844437 -95.556999 -88.990318 -151.086731 137.872513
2 -1.259640 -2.480268 -137.844437 -156.311661 -73.293808 -89.742935 137.872513
[Rope3_Seg01]
1 0.000000 0.000000 0.000000 -140.821564 -33.152992 -62.709225 0.000000
2 0.000000 0.000000 0.000000 -141.510681 -32.513580 -60.851391 0.000000
[Rope3_Seg02]
1 139.999924 -0.000119 0.000060 -34.760983 7.884001 -48.325806 139.999924
2 139.999924 -0.000119 0.000060 -1.693985 -17.260773 -39.107960 139.999924
[Rope3_Seg03]
1 139.999924 -0.000119 0.000119 -62.485550 33.922497 -41.970982 139.999924
2 139.999924 -0.000119 0.000119 -143.360046 -14.522929 -57.499496 139.999924
[Rope3_Seg04]
1 139.999924 0.000119 0.000000 -19.098532 32.217678 -10.510834 139.999924
2 139.999924 0.000119 0.000000 -4.785172 25.410902 18.192787 139.999924
[Rope3_Seg05]
1 139.999924 -0.000238 0.000060 -4.597167 21.059668 -1.351661 139.999924
2 139.999924 -0.000238 0.000060 -0.445933 9.143894 7.885922 139.999924
[Rope3_Seg06]
1 139.999893 -0.000119 -0.000060 -0.145637 6.930571 0.513097 139.999893
2 139.999893 -0.000119 -0.000060 0.284945 3.368414 3.236456 139.999893
[Rope3_Seg07]
1 139.999771 0.000060 -0.000119 0.364004 4.037220 0.311421 139.999771
2 139.999771 0.000060 -0.000119 0.447970 2.071572 1.973632 139.999771
[Rope3_Seg08]
1 139.999985 -0.000060 0.000000 0.514388 2.300865 0.160393 139.999985
2 139.999985 -0.000060 0.000000 0.508554 1.223186 1.149635 139.999985
[Rope3_Seg09]
1 90.185997 -0.000179 -0.000060 89.793228 -1.359877 -0.847183 90.185997
2 90.185997 -0.000179 -0.000060 89.793228 -1.359877 -0.847183 90.185997
[R_rear_hand01]
1 103.366196 -6.073594 -10.757982 -166.970291 21.129854 -46.704182 104.101845
2 103.366196 -6.073594 -10.757982 -166.970291 21.129854 -46.704182 104.101845
[R_rear_hand02]
1 100.509819 12.039542 -7.992327 -28.148870 27.804201 44.102722 101.543350
2 100.509819 12.039542 -7.992327 -28.148870 27.804201 44.102722 101.543350
[R_rear_hand03]
1 101.539970 5.215704 5.435467 81.628380 -47.127724 10.016966 101.819031
2 101.539970 5.215704 5.435467 81.628380 -47.127724 10.016966 101.819031
[Rope4_Seg01]
1 -0.000019 -0.000076 -0.000153 47.295902 -12.651561 -103.718285 0.000172
2 -0.000018 -0.000075 -0.000148 48.418953 -18.083504 -105.916573 0.000167
[Rope4_Seg02]
1 139.999985 0.000060 0.000119 23.837305 -68.895988 17.608734 139.999985
2 139.999985 0.000060 0.000119 19.540342 -53.923161 5.558022 139.999985
[Rope4_Seg03]
1 139.999924 0.000000 -0.000238 44.243046 -26.968679 30.987169 139.999924
2 139.999924 0.000000 -0.000238 57.225658 -43.714466 32.019482 139.999924
[Rope4_Seg04]
1 139.999985 0.000000 0.000119 17.934910 -2.638192 23.968428 139.999985
2 139.999985 0.000000 0.000119 13.748915 -0.903530 16.082130 139.999985
[Rope4_Seg05]
1 139.999802 -0.000060 -0.000119 12.670346 5.273653 33.169075 139.999802
2 139.999802 -0.000060 -0.000119 10.269065 0.703706 16.869440 139.999802
[Rope4_Seg06]
1 139.999924 0.000000 0.000060 1.640591 4.808428 12.077797 139.999924
2 139.999924 0.000000 0.000060 4.073707 2.539074 9.631796 139.999924
[Rope4_Seg07]
1 139.999802 0.000000 0.000000 0.230689 2.579952 5.985482 139.999802
2 139.999802 0.000000 0.000000 1.817420 2.018822 5.517139 139.999802
[Rope4_Seg08]
1 139.999924 0.000000 0.000119 -1.586722 1.402253 3.232550 139.999924
2 139.999924 0.000000 0.000119 -0.654394 1.296710 3.239316 139.999924
[Rope4_Seg09]
1 90.185791 0.000060 0.000060 -135.617828 2.228885 0.850567 90.185791
2 90.185791 0.000060 0.000060 -135.617828 2.228885 0.850567 90.185791
[L_rear_hand01]
1 101.696655 -8.392275 -7.654577 -27.705481 -28.251705 134.947800 102.329041
2 101.696655 -8.392275 -7.654577 -27.705481 -28.251705 134.947800 102.329041
[L_rear_hand02]
1 102.726799 -1.568258 5.773216 81.477219 48.065086 169.775513 102.900848
2 102.726799 -1.568258 5.773216 81.477219 48.065086 169.775513 102.900848
[L_rear_hand03]
1 104.552910 9.721220 -10.420293 -167.330078 -21.338425 -132.303940 105.519653
2 104.552910 9.721220 -10.420293 -167.330078 -21.338425 -132.303940 105.519653
